<svg width="432" height="25" viewBox="0 0 432 25" fill="none" xmlns="http://www.w3.org/2000/svg">
<path d="M1.03782 18.0952C13.7258 11.0988 34.0461 15.4112 48.4475 17.8792C62.849 20.3471 102.402 24.4702 123.629 22.5614C146.931 20.466 170.86 26.1886 194.042 23.1835C200.732 22.3162 228.976 17.4551 228.657 5.34803C228.57 2.0709 222.472 3.0965 221.105 4.34807C219.469 5.84579 217.032 6.72092 217.748 10.0556C217.895 5.67845 213.275 0.701653 208.918 0.542903C202.229 0.29923 204.97 10.0556 210.828 13.4568C213.196 14.8311 221.48 18.0424 227.761 18.2712C250.459 19.0982 262.879 23.7481 297.213 20.8015C331.547 17.8549 339.139 24.082 363.11 19.0048C374.144 16.6676 389.389 19.9622 400.591 20.3703C409.241 20.6854 431.246 19.0048 431.246 19.0048" stroke="black" stroke-linecap="round" stroke-linejoin="round"/>
</svg>
