<svg width="439" height="60" viewBox="0 0 439 60" fill="none" xmlns="http://www.w3.org/2000/svg">
<path d="M60.8047 13.2188C60.7891 13.2813 60.6172 13.6016 60.2891 14.1797C59.9766 14.7422 59.4609 15.3828 58.7422 16.1016C58.0391 16.8203 57.1016 17.4453 55.9297 17.9766C54.6641 18.5078 53.2891 18.7734 51.8047 18.7734C49.7578 18.7734 47.5156 18.2734 45.0781 17.2734C44.0781 16.8516 43.1016 16.5078 42.1484 16.2422C42.2578 16.3359 42.3203 16.4531 42.3359 16.5938C42.3672 16.7344 42.3516 16.8672 42.2891 16.9922L22.9062 50.6016C23.125 50.5234 23.3359 50.5547 23.5391 50.6953C23.6641 50.8203 23.7344 50.9688 23.75 51.1406C23.7656 51.2969 23.7188 51.4375 23.6094 51.5625L19.5312 56.4141C19.3906 56.5703 19.2344 56.6484 19.0625 56.6484C18.9375 56.6484 18.8203 56.6094 18.7109 56.5312C18.5703 56.4375 18.4844 56.3125 18.4531 56.1562C18.4219 56 18.4453 55.8516 18.5234 55.7109L41.2109 16.3828C41.3047 16.2109 41.4453 16.1094 41.6328 16.0781C38.5234 15.2969 35.8047 15 33.4766 15.1875C31.1484 15.375 29.2969 15.7188 27.9219 16.2188C26.5625 16.7188 25.7891 17.0469 25.6016 17.2031C25.5859 17.2188 25.5703 17.2266 25.5547 17.2266C25.4141 17.3047 25.2734 17.3359 25.1328 17.3203C24.9922 17.2891 24.875 17.2188 24.7812 17.1094C24.6719 17 24.6094 16.875 24.5938 16.7344C24.5938 16.5938 24.6406 16.4609 24.7344 16.3359C24.75 16.3047 24.8203 16.25 24.9453 16.1719V16.1484C24.9609 16.1328 24.9844 16.125 25.0156 16.125C25.9219 15.3906 28.2109 14.7109 31.8828 14.0859C35.5703 13.4453 40.125 14.125 45.5469 16.125C49.4531 17.7344 52.75 17.9688 55.4375 16.8281C56.4688 16.3594 57.2891 15.8125 57.8984 15.1875C58.5078 14.5625 58.9453 14.0156 59.2109 13.5469C59.4922 13.0625 59.6328 12.7969 59.6328 12.75C59.7109 12.5937 59.8203 12.4844 59.9609 12.4219C60.1172 12.3594 60.2812 12.3516 60.4531 12.3984C60.6094 12.4766 60.7188 12.5937 60.7812 12.75C60.8438 12.8906 60.8516 13.0469 60.8047 13.2188ZM60.3125 50.9062C60.4844 50.8594 60.6406 50.8828 60.7812 50.9766C60.9219 51.0547 61.0234 51.1719 61.0859 51.3281C61.1172 51.5 61.0938 51.6562 61.0156 51.7969C60.9375 51.9375 60.8125 52.0391 60.6406 52.1016C48.8438 55.3516 40.3281 56.9766 35.0938 56.9766C31.9844 56.9766 30.1328 56.3906 29.5391 55.2188C29.0547 54.0625 29.6484 52.8672 31.3203 51.6328C34.3047 49.7422 36.3906 49.1406 37.5781 49.8281C37.9844 50.0469 38.1875 50.3594 38.1875 50.7656C38.2031 50.9531 38.1328 51.1641 37.9766 51.3984C37.8359 51.6172 37.5547 51.8359 37.1328 52.0547C36.3828 52.4141 35.6875 52.6484 35.0469 52.7578C34.4062 52.8672 33.8828 52.9141 33.4766 52.8984C33.0859 52.8828 32.875 52.8672 32.8438 52.8516C32.5938 52.8047 32.4297 52.6562 32.3516 52.4062C32.2422 52.4844 32.1328 52.5625 32.0234 52.6406C31.5078 53.0156 31.125 53.3906 30.875 53.7656C30.6094 54.1406 30.5312 54.4531 30.6406 54.7031C30.6562 54.7656 30.75 54.8672 30.9219 55.0078C31.0938 55.1484 31.4141 55.2891 31.8828 55.4297C32.3516 55.5703 33.0234 55.6719 33.8984 55.7344C34.7734 55.7969 35.9219 55.7812 37.3438 55.6875C38.7812 55.5781 40.5469 55.3594 42.6406 55.0312C44.75 54.6875 47.2578 54.1797 50.1641 53.5078C53.0859 52.8359 56.4688 51.9688 60.3125 50.9062ZM36.4297 50.8125C35.8516 50.8125 34.9062 51.0938 33.5938 51.6562C34.3125 51.7188 35.3125 51.4844 36.5938 50.9531C36.6719 50.9062 36.7344 50.8672 36.7812 50.8359C36.6875 50.8203 36.5703 50.8125 36.4297 50.8125ZM58.4609 57.2344C58.2109 57.2344 58.0156 57.125 57.875 56.9062C57.8281 56.7969 57.8047 56.6953 57.8047 56.6016C57.8047 56.4766 57.8359 56.3516 57.8984 56.2266C58.1797 55.6797 59.7812 54.8672 62.7031 53.7891V53.7656L62.0938 53.6719C60.7656 53.5781 60.1016 53.1016 60.1016 52.2422C60.1172 51.6484 60.6016 51.0312 61.5547 50.3906C63.2109 49.2188 64.5625 48.6328 65.6094 48.6328C65.8125 48.6328 66.0078 48.6641 66.1953 48.7266C66.9297 49.0078 67.2969 49.5234 67.2969 50.2734C67.2969 50.8203 67.0781 51.0938 66.6406 51.0938H66.5703C66.2266 51 66.0547 50.7812 66.0547 50.4375L66.0781 50.2031C66.0781 49.9844 65.9141 49.875 65.5859 49.875C65.2109 49.875 64.6797 50.0469 63.9922 50.3906C63.3203 50.7188 62.7344 51.0547 62.2344 51.3984C61.75 51.7422 61.4531 52.0234 61.3438 52.2422C61.4688 52.3203 61.7891 52.3984 62.3047 52.4766C62.8203 52.5391 63.2188 52.625 63.5 52.7344C63.7969 52.8281 64.0078 53.0234 64.1328 53.3203C68.8047 51.6953 76.1953 50.8828 86.3047 50.8828H86.5859C86.9766 50.9141 87.1719 51.125 87.1719 51.5156C87.1719 51.6875 87.1094 51.8359 86.9844 51.9609C86.875 52.0703 86.7266 52.125 86.5391 52.125L83.9609 52.1016C79.4297 52.1016 75.3828 52.375 71.8203 52.9219C68.2734 53.4688 65.4219 54.125 63.2656 54.8906C62.4219 55.5156 61.5391 56.0391 60.6172 56.4609C59.6484 56.9766 58.9297 57.2344 58.4609 57.2344ZM84.4766 57.2344C84.2266 57.2344 84.0312 57.125 83.8906 56.9062C83.8438 56.7969 83.8203 56.6953 83.8203 56.6016C83.8203 56.4766 83.8516 56.3516 83.9141 56.2266C84.1953 55.6797 85.7969 54.8672 88.7188 53.7891V53.7656L88.1094 53.6719C86.7812 53.5781 86.1172 53.1016 86.1172 52.2422C86.1328 51.6484 86.6172 51.0312 87.5703 50.3906C89.2266 49.2188 90.5781 48.6328 91.625 48.6328C91.8281 48.6328 92.0234 48.6641 92.2109 48.7266C92.9453 49.0078 93.3125 49.5234 93.3125 50.2734C93.3125 50.8203 93.0938 51.0938 92.6562 51.0938H92.5859C92.2422 51 92.0703 50.7812 92.0703 50.4375L92.0938 50.2031C92.0938 49.9844 91.9297 49.875 91.6016 49.875C91.2266 49.875 90.6953 50.0469 90.0078 50.3906C89.3359 50.7188 88.75 51.0547 88.25 51.3984C87.7656 51.7422 87.4688 52.0234 87.3594 52.2422C87.4844 52.3203 87.8047 52.3984 88.3203 52.4766C88.8359 52.5391 89.2344 52.625 89.5156 52.7344C89.8125 52.8281 90.0234 53.0234 90.1484 53.3203C94.8203 51.6953 102.211 50.8828 112.32 50.8828H112.602C112.992 50.9141 113.188 51.125 113.188 51.5156C113.188 51.6875 113.125 51.8359 113 51.9609C112.891 52.0703 112.742 52.125 112.555 52.125L109.977 52.1016C105.445 52.1016 101.398 52.375 97.8359 52.9219C94.2891 53.4688 91.4375 54.125 89.2812 54.8906C88.4375 55.5156 87.5547 56.0391 86.6328 56.4609C85.6641 56.9766 84.9453 57.2344 84.4766 57.2344ZM109.438 57.1406C108.812 57.1406 108.359 57 108.078 56.7188C107.797 56.4375 107.656 56.1328 107.656 55.8047C107.656 55.2734 107.961 54.6562 108.57 53.9531C109.758 52.6406 111.047 51.6562 112.438 51C113.828 50.3438 115.023 49.9141 116.023 49.7109C117.039 49.5078 117.633 49.4062 117.805 49.4062H117.898C118.039 49.4062 118.172 49.4609 118.297 49.5703C118.422 49.6797 118.484 49.8359 118.484 50.0391C118.484 50.3984 118.297 50.5938 117.922 50.625H117.898C117.789 50.625 117.273 50.7188 116.352 50.9062C115.43 51.0938 114.32 51.4922 113.023 52.1016C111.742 52.6953 110.562 53.5781 109.484 54.75C109.172 55.1406 108.984 55.4375 108.922 55.6406L108.898 55.8047C108.898 55.8672 109.047 55.8984 109.344 55.8984C110.422 55.8984 111.82 55.4609 113.539 54.5859C115.18 53.7422 116.688 52.5234 118.062 50.9297C118.203 50.7891 118.367 50.7188 118.555 50.7188C118.68 50.7188 118.805 50.7578 118.93 50.8359C119.086 50.9766 119.164 51.1406 119.164 51.3281C119.164 51.4688 119.117 51.5938 119.023 51.7031L118.555 52.2422C119.461 54.1484 121.258 55.1016 123.945 55.1016C124.586 55.1016 125.5 55 126.688 54.7969C127.875 54.5781 129.234 54.1719 130.766 53.5781C132.312 52.9688 133.586 52.4062 134.586 51.8906C135.602 51.375 136.133 51.0938 136.18 51.0469C136.289 50.9844 136.398 50.9531 136.508 50.9531C136.555 50.9531 136.625 50.9688 136.719 51C136.828 51.0312 136.922 51.1094 137 51.2344C137.078 51.3594 137.117 51.4688 137.117 51.5625C137.117 51.7812 137.023 51.9609 136.836 52.1016C136.648 52.2266 135.891 52.625 134.562 53.2969C130.547 55.3125 126.977 56.3203 123.852 56.3203C120.914 56.3203 118.844 55.2656 117.641 53.1562C116.203 54.4531 114.719 55.4453 113.188 56.1328C111.656 56.8047 110.406 57.1406 109.438 57.1406ZM244.766 16.3359C244.906 16.3828 245.016 16.4688 245.094 16.5938C245.172 16.7188 245.203 16.8594 245.188 17.0156L244.531 21.2578C244.5 21.4297 244.414 21.5703 244.273 21.6797C244.148 21.7734 244 21.8047 243.828 21.7734C243.641 21.7422 243.5 21.6641 243.406 21.5391C243.312 21.3984 243.273 21.2422 243.289 21.0703L243.336 20.8125C241.211 25.1719 238.227 30.7812 234.383 37.6406C230.992 43.5781 228.031 48.2109 225.5 51.5391C222.219 55.8984 219.68 57.9141 217.883 57.5859C216.523 57.3828 215.656 56.0625 215.281 53.625C214.609 48.0938 214.812 42.3438 215.891 36.375C216.984 30.4062 218.148 25.4766 219.383 21.5859L197.141 57.4922C197 57.6953 196.828 57.7969 196.625 57.7969C196.516 57.7969 196.406 57.7656 196.297 57.7031C196.156 57.6094 196.062 57.4766 196.016 57.3047C195.984 57.1484 196.008 56.9922 196.086 56.8359L221.023 16.5938C221.117 16.4531 221.234 16.3672 221.375 16.3359C221.531 16.2891 221.68 16.2969 221.82 16.3594C221.961 16.4375 222.062 16.5469 222.125 16.6875C222.188 16.8281 222.188 16.9766 222.125 17.1328C222 17.3828 221.344 19.4922 220.156 23.4609C218.969 27.4141 217.906 32.1562 216.969 37.6875C216.047 43.2188 215.891 48.4688 216.5 53.4375C216.594 54.0938 216.758 54.7188 216.992 55.3125C217.242 55.9062 217.602 56.2578 218.07 56.3672C218.133 56.3828 218.195 56.3906 218.258 56.3906C219.867 56.3906 222.234 54.1562 225.359 49.6875C228.484 45.2188 231.727 39.9375 235.086 33.8438C238.461 27.75 241.438 22.0234 244.016 16.6641C244.078 16.5234 244.18 16.4219 244.32 16.3594C244.461 16.2969 244.609 16.2891 244.766 16.3359ZM259.133 51.3281C259.18 51.4844 259.164 51.6406 259.086 51.7969C259.008 51.9375 258.891 52.0312 258.734 52.0781C246.828 55.7188 239.328 57.4141 236.234 57.1641C234.844 57.1641 233.852 57.0156 233.258 56.7188C232.664 56.4219 232.281 56.0781 232.109 55.6875C231.719 54.8281 231.836 53.875 232.461 52.8281C233.086 51.7812 233.836 50.8359 234.711 49.9922C235.602 49.1328 236.242 48.5547 236.633 48.2578C236.773 48.1484 236.922 48.1016 237.078 48.1172C237.25 48.1328 237.391 48.2109 237.5 48.3516C237.609 48.4922 237.656 48.6406 237.641 48.7969C237.625 48.9531 237.547 49.0938 237.406 49.2188C236.281 50.125 235.242 51.1719 234.289 52.3594C233.32 53.5312 232.953 54.4453 233.188 55.1016C233.281 55.3672 233.672 55.6016 234.359 55.8047C235.047 55.9922 236.266 56.0156 238.016 55.875C239.781 55.7188 242.297 55.2656 245.562 54.5156C248.828 53.75 253.094 52.5469 258.359 50.9062C258.516 50.8594 258.664 50.875 258.805 50.9531C258.961 51.0312 259.07 51.1562 259.133 51.3281ZM240.031 47.6016C239.797 47.8203 239.539 47.9453 239.258 47.9766C238.977 48.0078 238.734 47.9297 238.531 47.7422C238.344 47.5391 238.266 47.2969 238.297 47.0156C238.328 46.7344 238.453 46.4766 238.672 46.2422C238.906 46.0078 239.164 45.8828 239.445 45.8672C239.742 45.8359 239.984 45.9141 240.172 46.1016C240.359 46.2891 240.438 46.5312 240.406 46.8281C240.391 47.1094 240.266 47.3672 240.031 47.6016ZM289.461 50.9062C289.633 50.8594 289.789 50.875 289.93 50.9531C290.07 51.0312 290.172 51.1562 290.234 51.3281C290.281 51.4844 290.266 51.6406 290.188 51.7969C290.109 51.9375 289.992 52.0312 289.836 52.0781C283.836 53.9375 278.883 55.2266 274.977 55.9453C271.07 56.6641 267.945 57.0234 265.602 57.0234C263.555 57.0234 262 56.8438 260.938 56.4844C259.875 56.125 259.133 55.7188 258.711 55.2656C257.898 54.4844 257.617 53.5625 257.867 52.5C258.07 51.7969 258.469 51.1719 259.062 50.625C259.656 50.0781 260.352 49.6875 261.148 49.4531C262.664 49.0781 263.906 48.9688 264.875 49.125C265.859 49.2812 266.609 49.5391 267.125 49.8984C267.641 50.2578 267.969 50.5547 268.109 50.7891C268.453 51.2422 268.539 51.6094 268.367 51.8906C268.273 52.0469 268.148 52.1484 267.992 52.1953C267.836 52.2266 267.68 52.2031 267.523 52.125C267.352 52.0156 267.258 51.8672 267.242 51.6797C267.195 51.6016 267.062 51.4609 266.844 51.2578C266.641 51.0391 266.32 50.8359 265.883 50.6484C265.445 50.4453 264.859 50.3281 264.125 50.2969C263.406 50.2656 262.523 50.3828 261.477 50.6484C260.883 50.8047 260.367 51.0859 259.93 51.4922C259.492 51.8828 259.203 52.3203 259.062 52.8047C258.922 53.3984 259.086 53.9219 259.555 54.375C259.789 54.6562 260.398 54.9609 261.383 55.2891C262.367 55.6172 263.945 55.7812 266.117 55.7812C268.289 55.7656 271.266 55.3984 275.047 54.6797C278.828 53.9609 283.633 52.7031 289.461 50.9062ZM316.133 50.9297C316.305 50.8672 316.461 50.8672 316.602 50.9297C316.758 50.9922 316.875 51.1016 316.953 51.2578C317.016 51.4141 317.016 51.5703 316.953 51.7266C316.891 51.8828 316.781 51.9922 316.625 52.0547C311.531 54.2578 307.539 55.75 304.648 56.5312C301.758 57.3125 299.633 57.6484 298.273 57.5391C296.914 57.4453 295.984 57.1719 295.484 56.7188C294.703 56.0938 294.266 55.3203 294.172 54.3984C294.078 53.4609 294.094 52.5781 294.219 51.75C294.25 51.5469 294.273 51.3125 294.289 51.0469C294.305 50.7812 294.305 50.5469 294.289 50.3438C294.289 50.1406 294.258 50.0078 294.195 49.9453C294.195 49.9453 294.188 49.9453 294.172 49.9453C294.156 49.9297 294.125 49.9219 294.078 49.9219C294.031 49.9062 293.969 49.9062 293.891 49.9219C293.828 49.9219 293.742 49.9375 293.633 49.9688C293.539 49.9844 293.414 50.0156 293.258 50.0625C292.711 50.2812 292.102 50.8203 291.43 51.6797C290.773 52.5391 290.148 53.4609 289.555 54.4453C288.961 55.4141 288.516 56.1719 288.219 56.7188C287.984 57.1406 287.797 57.4453 287.656 57.6328C287.5 57.8359 287.344 57.9375 287.188 57.9375C287.094 57.9375 286.984 57.9141 286.859 57.8672C286.594 57.7422 286.484 57.5547 286.531 57.3047C286.562 57.0547 286.68 56.6875 286.883 56.2031C287.117 55.6094 287.508 54.6484 288.055 53.3203C288.07 53.3047 288.078 53.2812 288.078 53.25C288.797 51.5312 289.82 49.0469 291.148 45.7969C294.18 38.6406 297.211 32.9922 300.242 28.8516C303.289 24.7109 305.57 22.5469 307.086 22.3594C307.555 22.3125 307.914 22.4766 308.164 22.8516C308.242 22.9297 308.305 23.1016 308.352 23.3672C308.414 23.6172 308.391 24.0234 308.281 24.5859C308.188 25.1328 307.922 25.9141 307.484 26.9297C307.047 27.9297 306.375 29.2188 305.469 30.7969C300.047 39.7656 295.828 45.8047 292.812 48.9141C292.828 48.9141 292.844 48.9062 292.859 48.8906C293.172 48.7812 293.516 48.7109 293.891 48.6797C294.281 48.6484 294.641 48.75 294.969 48.9844C295.312 49.2812 295.492 49.6797 295.508 50.1797C295.539 50.6797 295.516 51.25 295.438 51.8906C295.344 52.625 295.32 53.3438 295.367 54.0469C295.414 54.75 295.695 55.3125 296.211 55.7344C298.461 57.3438 305.102 55.7422 316.133 50.9297ZM291.266 48.7734C292.641 47.3047 294.469 45.0391 296.75 41.9766C299.047 38.8984 301.602 34.9688 304.414 30.1875C305.633 28.0156 306.414 26.4219 306.758 25.4062C307.102 24.375 307.234 23.7656 307.156 23.5781C306.531 23.4062 304.664 25.2734 301.555 29.1797C298.133 33.8984 295.047 39.5859 292.297 46.2422C291.922 47.1484 291.578 47.9922 291.266 48.7734ZM315.453 57.2578C314.859 57.2578 314.445 57.125 314.211 56.8594C313.867 56.5156 313.695 56.0859 313.695 55.5703C313.695 54.9922 313.914 54.2891 314.352 53.4609C315.68 50.9297 317.5 49.4062 319.812 48.8906L319.977 48.8672L320.141 48.8906C320.219 48.9219 320.273 48.9531 320.305 48.9844C320.32 48.9844 320.328 48.9922 320.328 49.0078C320.344 49.0078 320.359 49.0156 320.375 49.0312L320.398 49.0547L320.539 49.0312C320.742 49.0312 320.914 49.1328 321.055 49.3359L321.266 49.7578C321.453 50.2109 321.547 50.7031 321.547 51.2344C321.547 52.3125 321.164 53.3359 320.398 54.3047C320.977 54.7266 322.164 54.9375 323.961 54.9375C324.805 54.9375 326.375 54.8438 328.672 54.6562C330.969 54.4531 335.945 53.2031 343.602 50.9062L343.789 50.8828C343.883 50.8828 343.992 50.9141 344.117 50.9766C344.305 51.0859 344.398 51.2578 344.398 51.4922C344.398 51.8047 344.25 52 343.953 52.0781C335.016 54.8125 328.414 56.1797 324.148 56.1797C322.07 56.1797 320.523 55.8594 319.508 55.2188C319.289 55.4062 319.039 55.5938 318.758 55.7812C317.305 56.7656 316.203 57.2578 315.453 57.2578ZM315.594 56.0156C315.719 56.0156 316 55.9219 316.438 55.7344C317.125 55.4375 317.844 54.9844 318.594 54.375C318.594 54.3594 318.586 54.3516 318.57 54.3516V54.3281C318.227 53.8125 318.055 53.2812 318.055 52.7344C318.055 52.0469 318.219 51.3594 318.547 50.6719C317.359 51.2812 316.32 52.4141 315.43 54.0703C315.102 54.6797 314.938 55.1719 314.938 55.5469C314.938 55.75 314.969 55.8828 315.031 55.9453C315.078 55.9922 315.18 56.0156 315.336 56.0156H315.594ZM319.484 53.4609C320.047 52.7109 320.328 52.0234 320.328 51.3984C320.328 50.9141 320.266 50.5469 320.141 50.2969C319.891 50.6719 319.664 51.1641 319.461 51.7734C319.367 52.0547 319.32 52.3359 319.32 52.6172C319.32 52.8984 319.375 53.1797 319.484 53.4609ZM348.453 58.0547H348.289C345.414 58.0547 343.703 57.2031 343.156 55.5C343 54.8125 342.922 54.0859 342.922 53.3203C342.922 51.3672 343.547 48.9141 344.797 45.9609C346.047 42.9922 347.453 40.2656 349.016 37.7812C351.016 34.5 353.117 31.4531 355.32 28.6406C357.523 25.8125 359.445 23.7188 361.086 22.3594C362.008 21.5938 362.758 21.2109 363.336 21.2109C363.539 21.2109 363.727 21.2578 363.898 21.3516C364.305 21.5859 364.508 22.0391 364.508 22.7109L364.484 23.1797C364.109 25.5703 362.938 28.3125 360.969 31.4062C359.016 34.5 356.797 37.5469 354.312 40.5469C351.828 43.5469 349.617 46.0781 347.68 48.1406C345.742 50.2031 344.602 51.3984 344.258 51.7266C344.148 52.3359 344.094 52.8984 344.094 53.4141C344.094 54.0391 344.172 54.6094 344.328 55.125C344.703 56.2812 346.148 56.8594 348.664 56.8594C349.555 56.8594 350.945 56.7109 352.836 56.4141C354.727 56.1172 357.102 55.5312 359.961 54.6562C362.82 53.7656 365.25 52.9375 367.25 52.1719C369.266 51.4062 370.328 51 370.438 50.9531C370.547 50.9062 370.641 50.8828 370.719 50.8828C370.797 50.8828 370.891 50.9062 371 50.9531C371.203 51.0312 371.305 51.2109 371.305 51.4922C371.305 51.7578 371.18 51.9531 370.93 52.0781C370.586 52.2344 369.125 52.7891 366.547 53.7422C359.141 56.5078 353.109 57.9453 348.453 58.0547ZM344.82 49.3828C346.43 47.7266 348.609 45.3125 351.359 42.1406C354.125 38.9531 356.688 35.6172 359.047 32.1328C361.422 28.6484 362.828 25.6172 363.266 23.0391L363.289 22.6406C363.289 22.5469 363.281 22.4844 363.266 22.4531H363.242C363.023 22.4531 362.461 22.8281 361.555 23.5781C360.664 24.3125 359.344 25.7109 357.594 27.7734C355.109 30.7578 352.641 34.2422 350.188 38.2266C347.734 42.1953 345.945 45.9141 344.82 49.3828ZM367.578 57.1406C366.953 57.1406 366.5 57 366.219 56.7188C365.938 56.4375 365.797 56.1328 365.797 55.8047C365.797 55.2734 366.102 54.6562 366.711 53.9531C367.898 52.6406 369.188 51.6562 370.578 51C371.969 50.3438 373.164 49.9141 374.164 49.7109C375.18 49.5078 375.773 49.4062 375.945 49.4062H376.039C376.18 49.4062 376.312 49.4609 376.438 49.5703C376.562 49.6797 376.625 49.8359 376.625 50.0391C376.625 50.3984 376.438 50.5938 376.062 50.625H376.039C375.93 50.625 375.414 50.7188 374.492 50.9062C373.57 51.0938 372.461 51.4922 371.164 52.1016C369.883 52.6953 368.703 53.5781 367.625 54.75C367.312 55.1406 367.125 55.4375 367.062 55.6406L367.039 55.8047C367.039 55.8672 367.188 55.8984 367.484 55.8984C368.562 55.8984 369.961 55.4609 371.68 54.5859C373.32 53.7422 374.828 52.5234 376.203 50.9297C376.344 50.7891 376.508 50.7188 376.695 50.7188C376.82 50.7188 376.945 50.7578 377.07 50.8359C377.227 50.9766 377.305 51.1406 377.305 51.3281C377.305 51.4688 377.258 51.5938 377.164 51.7031L376.695 52.2422C377.602 54.1484 379.398 55.1016 382.086 55.1016C382.727 55.1016 383.641 55 384.828 54.7969C386.016 54.5781 387.375 54.1719 388.906 53.5781C390.453 52.9688 391.727 52.4062 392.727 51.8906C393.742 51.375 394.273 51.0938 394.32 51.0469C394.43 50.9844 394.539 50.9531 394.648 50.9531C394.695 50.9531 394.766 50.9688 394.859 51C394.969 51.0312 395.062 51.1094 395.141 51.2344C395.219 51.3594 395.258 51.4688 395.258 51.5625C395.258 51.7812 395.164 51.9609 394.977 52.1016C394.789 52.2266 394.031 52.625 392.703 53.2969C388.688 55.3125 385.117 56.3203 381.992 56.3203C379.055 56.3203 376.984 55.2656 375.781 53.1562C374.344 54.4531 372.859 55.4453 371.328 56.1328C369.797 56.8047 368.547 57.1406 367.578 57.1406ZM392.586 57.2344C392.336 57.2344 392.141 57.125 392 56.9062C391.953 56.7969 391.93 56.6953 391.93 56.6016C391.93 56.4766 391.961 56.3516 392.023 56.2266C392.305 55.6797 393.906 54.8672 396.828 53.7891V53.7656L396.219 53.6719C394.891 53.5781 394.227 53.1016 394.227 52.2422C394.242 51.6484 394.727 51.0312 395.68 50.3906C397.336 49.2188 398.688 48.6328 399.734 48.6328C399.938 48.6328 400.133 48.6641 400.32 48.7266C401.055 49.0078 401.422 49.5234 401.422 50.2734C401.422 50.8203 401.203 51.0938 400.766 51.0938H400.695C400.352 51 400.18 50.7812 400.18 50.4375L400.203 50.2031C400.203 49.9844 400.039 49.875 399.711 49.875C399.336 49.875 398.805 50.0469 398.117 50.3906C397.445 50.7188 396.859 51.0547 396.359 51.3984C395.875 51.7422 395.578 52.0234 395.469 52.2422C395.594 52.3203 395.914 52.3984 396.43 52.4766C396.945 52.5391 397.344 52.625 397.625 52.7344C397.922 52.8281 398.133 53.0234 398.258 53.3203C402.93 51.6953 410.32 50.8828 420.43 50.8828H420.711C421.102 50.9141 421.297 51.125 421.297 51.5156C421.297 51.6875 421.234 51.8359 421.109 51.9609C421 52.0703 420.852 52.125 420.664 52.125L418.086 52.1016C413.555 52.1016 409.508 52.375 405.945 52.9219C402.398 53.4688 399.547 54.125 397.391 54.8906C396.547 55.5156 395.664 56.0391 394.742 56.4609C393.773 56.9766 393.055 57.2344 392.586 57.2344Z" fill="black"/>
<path d="M171.131 57.5C171.131 57.5 163.206 37.78 171.131 39.0613C176.359 39.9067 167.609 45.468 167.609 45.468C149.117 59.5627 164.967 57 173 50.5933" stroke="black" stroke-width="1.3" stroke-linecap="round" stroke-linejoin="round"/>
</svg>
